<?xml version="1.0" encoding="UTF-8" standalone="no"?>
<!-- Created with Inkscape (http://www.inkscape.org/) -->

<svg
   width="14.761109"
   height="8.7424564"
   viewBox="0 0 14.761109 8.7424564"
   version="1.1"
   id="svg1"
   xmlns:xlink="http://www.w3.org/1999/xlink"
   xmlns="http://www.w3.org/2000/svg"
   xmlns:svg="http://www.w3.org/2000/svg">
  <defs
     id="defs1">
    <symbol
       id="symbol">
      <g
         id="symbol_transform"
         transform="matrix(0.52864756,0,0,0.52864756,-0.45836096,-0.45836096)">
        <title
           id="title1">#symbol</title>
        <path
           id="path2"
           style="fill-opacity:1;stroke:none;stroke-width:0;stroke-linejoin:round;stroke-opacity:1"
           d="M 5.86201,7.7313 C 4.84803,7.7313 3.87558,8.13411 3.15859,8.8511 2.4416,9.56809 2.0388,10.5405 2.0388,11.5545 v 8.891 c 0,2.1115 1.71171,3.8232 3.82321,3.8232 H 26.138 c 1.014,0 1.9864,-0.4028 2.7034,-1.1198 0.717,-0.717 1.1198,-1.6894 1.1198,-2.7034 v -8.891 c 0,-1.014 -0.4028,-1.98641 -1.1198,-2.7034 C 28.1244,8.13411 27.152,7.7313 26.138,7.7313 Z m 0.89358,1.50091 h 0.39825 c 0.19972,-4.2e-4 0.39142,0.07857 0.53287,0.21956 0.14146,0.14099 0.22108,0.33242 0.22132,0.53214 v 0.40079 c -2.4e-4,0.1997 -0.07986,0.3911 -0.22132,0.5321 -0.14145,0.141 -0.33315,0.22 -0.53287,0.2196 H 6.75559 C 6.55587,11.1368 6.36417,11.0578 6.22271,10.9168 6.08125,10.7758 6.00164,10.5844 6.0014,10.3847 V 9.98391 C 6.00164,9.78419 6.08125,9.59276 6.22271,9.45177 6.36417,9.31078 6.55587,9.23179 6.75559,9.23221 Z m 3.61661,0 h 0.4008 c 0.4149,5e-4 0.7511,0.33676 0.7516,0.7517 v 0.40079 c -5e-4,0.4149 -0.3367,0.7512 -0.7517,0.7517 H 10.3722 C 9.95726,11.1359 9.62101,10.7996 9.62051,10.3847 V 9.98391 c 5e-4,-0.41494 0.33675,-0.7512 0.75169,-0.7517 z m 3.6191,0 h 0.4008 c 0.4149,5e-4 0.7512,0.33676 0.7517,0.7517 v 0.40079 c -5e-4,0.4149 -0.3368,0.7512 -0.7517,0.7517 h -0.4008 c -0.1997,4e-4 -0.3914,-0.0786 -0.5329,-0.2196 -0.1414,-0.141 -0.221,-0.3324 -0.2213,-0.5321 V 9.98391 c 3e-4,-0.19972 0.0799,-0.39115 0.2213,-0.53214 0.1415,-0.14099 0.3332,-0.21998 0.5329,-0.21956 z m 3.6166,0 h 0.4008 c 0.1997,-4.2e-4 0.3914,0.07857 0.5329,0.21956 0.1414,0.14099 0.221,0.33242 0.2213,0.53214 v 0.40079 c -3e-4,0.1997 -0.0799,0.3911 -0.2213,0.5321 -0.1415,0.141 -0.3332,0.22 -0.5329,0.2196 h -0.4008 c -0.4149,-5e-4 -0.7512,-0.3368 -0.7517,-0.7517 V 9.98391 c 5e-4,-0.41494 0.3368,-0.7512 0.7517,-0.7517 z m 3.6192,0 h 0.4007 c 0.4149,5e-4 0.7512,0.33676 0.7517,0.7517 v 0.40079 c -5e-4,0.4149 -0.3368,0.7512 -0.7517,0.7517 h -0.4007 c -0.415,-5e-4 -0.7512,-0.3368 -0.7517,-0.7517 V 9.98391 c 5e-4,-0.41494 0.3367,-0.7512 0.7517,-0.7517 z m 3.6191,0 h 0.3982 c 0.1997,-4.2e-4 0.3914,0.07857 0.5329,0.21956 0.1414,0.14099 0.2211,0.33242 0.2213,0.53214 v 0.40079 c -2e-4,0.1997 -0.0799,0.3911 -0.2213,0.5321 -0.1415,0.141 -0.3332,0.22 -0.5329,0.2196 h -0.3982 c -0.1998,4e-4 -0.3915,-0.0786 -0.5329,-0.2196 -0.1415,-0.141 -0.2211,-0.3324 -0.2213,-0.5321 V 9.98391 c 2e-4,-0.19972 0.0798,-0.39115 0.2213,-0.53214 0.1414,-0.14099 0.3331,-0.21998 0.5329,-0.21956 z M 6.75559,12.8737 h 0.39825 c 0.19972,-4e-4 0.39142,0.0786 0.53287,0.2196 0.14146,0.141 0.22108,0.3324 0.22132,0.5321 v 0.4008 c -2.4e-4,0.1997 -0.07986,0.3911 -0.22132,0.5321 -0.14145,0.141 -0.33315,0.22 -0.53287,0.2196 H 6.75559 C 6.55587,14.7783 6.36417,14.6993 6.22271,14.5583 6.08125,14.4173 6.00164,14.2259 6.0014,14.0262 v -0.4008 c 2.4e-4,-0.1997 0.07985,-0.3911 0.22131,-0.5321 0.14146,-0.141 0.33316,-0.22 0.53288,-0.2196 z m 3.61661,0 h 0.4008 c 0.4149,5e-4 0.7511,0.3368 0.7516,0.7517 v 0.4008 c -5e-4,0.4149 -0.3367,0.7512 -0.7517,0.7517 H 10.3722 C 9.95726,14.7774 9.62101,14.4411 9.62051,14.0262 v -0.4008 c 5e-4,-0.4149 0.33675,-0.7512 0.75169,-0.7517 z m 3.6191,0 h 0.4008 c 0.4149,5e-4 0.7512,0.3368 0.7517,0.7517 v 0.4008 c -5e-4,0.4149 -0.3368,0.7512 -0.7517,0.7517 h -0.4008 c -0.1997,4e-4 -0.3914,-0.0786 -0.5329,-0.2196 -0.1414,-0.141 -0.221,-0.3324 -0.2213,-0.5321 v -0.4008 c 3e-4,-0.1997 0.0799,-0.3911 0.2213,-0.5321 0.1415,-0.141 0.3332,-0.22 0.5329,-0.2196 z m 3.6166,0 h 0.4008 c 0.1997,-4e-4 0.3914,0.0786 0.5329,0.2196 0.1414,0.141 0.221,0.3324 0.2213,0.5321 v 0.4008 c -3e-4,0.1997 -0.0799,0.3911 -0.2213,0.5321 -0.1415,0.141 -0.3332,0.22 -0.5329,0.2196 h -0.4008 c -0.4149,-5e-4 -0.7512,-0.3368 -0.7517,-0.7517 v -0.4008 c 5e-4,-0.4149 0.3368,-0.7512 0.7517,-0.7517 z m 3.6192,0 h 0.4007 c 0.4149,5e-4 0.7512,0.3368 0.7517,0.7517 v 0.4008 c -5e-4,0.4149 -0.3368,0.7512 -0.7517,0.7517 h -0.4007 c -0.415,-5e-4 -0.7512,-0.3368 -0.7517,-0.7517 v -0.4008 c 5e-4,-0.4149 0.3367,-0.7512 0.7517,-0.7517 z m 3.6191,0 h 0.3982 c 0.1997,-4e-4 0.3914,0.0786 0.5329,0.2196 0.1414,0.141 0.2211,0.3324 0.2213,0.5321 v 0.4008 c -2e-4,0.1997 -0.0799,0.3911 -0.2213,0.5321 -0.1415,0.141 -0.3332,0.22 -0.5329,0.2196 h -0.3982 c -0.1998,4e-4 -0.3915,-0.0786 -0.5329,-0.2196 -0.1415,-0.141 -0.2211,-0.3324 -0.2213,-0.5321 v -0.4008 c 2e-4,-0.1997 0.0798,-0.3911 0.2213,-0.5321 0.1414,-0.141 0.3331,-0.22 0.5329,-0.2196 z M 6.75559,16.5152 h 0.39825 c 0.19972,-4e-4 0.39142,0.0786 0.53287,0.2196 0.14146,0.141 0.22108,0.3324 0.22132,0.5321 v 0.4008 C 7.90845,17.8678 7.82912,18.0599 7.6876,18.2014 7.54607,18.343 7.35399,18.4223 7.15384,18.4219 H 6.75559 C 6.55544,18.4223 6.36336,18.343 6.22183,18.2014 6.0803,18.0599 6.00098,17.8678 6.0014,17.6677 v -0.4008 c 2.4e-4,-0.1997 0.07985,-0.3911 0.22131,-0.5321 0.14146,-0.141 0.33316,-0.22 0.53288,-0.2196 z m 3.61661,0 h 0.4008 c 0.4149,5e-4 0.7511,0.3368 0.7516,0.7517 v 0.4008 c 5e-4,0.1997 -0.0785,0.3914 -0.2195,0.5329 -0.141,0.1414 -0.3324,0.221 -0.5322,0.2213 H 10.3722 C 10.1725,18.4216 9.98105,18.342 9.84006,18.2006 9.69907,18.0591 9.62009,17.8674 9.62051,17.6677 v -0.4008 c 5e-4,-0.4149 0.33675,-0.7512 0.75169,-0.7517 z m 3.6191,0 h 0.4008 c 0.4149,5e-4 0.7512,0.3368 0.7517,0.7517 v 0.4008 c 4e-4,0.1997 -0.0786,0.3914 -0.2196,0.5329 -0.141,0.1414 -0.3324,0.221 -0.5321,0.2213 h -0.4008 c -0.2001,4e-4 -0.3922,-0.0789 -0.5337,-0.2205 -0.1416,-0.1415 -0.2209,-0.3336 -0.2205,-0.5337 v -0.4008 c 3e-4,-0.1997 0.0799,-0.3911 0.2213,-0.5321 0.1415,-0.141 0.3332,-0.22 0.5329,-0.2196 z m 3.6166,0 h 0.4008 c 0.1997,-4e-4 0.3914,0.0786 0.5329,0.2196 0.1414,0.141 0.221,0.3324 0.2213,0.5321 v 0.4008 c 4e-4,0.2001 -0.0789,0.3922 -0.2205,0.5337 -0.1415,0.1416 -0.3336,0.2209 -0.5337,0.2205 h -0.4008 c -0.1997,-3e-4 -0.3911,-0.0799 -0.5321,-0.2213 -0.141,-0.1415 -0.22,-0.3332 -0.2196,-0.5329 v -0.4008 c 5e-4,-0.4149 0.3368,-0.7512 0.7517,-0.7517 z m 3.6192,0 h 0.4007 c 0.4149,5e-4 0.7512,0.3368 0.7517,0.7517 v 0.4008 c 4e-4,0.1997 -0.0786,0.3914 -0.2196,0.5329 -0.141,0.1414 -0.3324,0.221 -0.5321,0.2213 h -0.4007 c -0.1998,-3e-4 -0.3912,-0.0799 -0.5322,-0.2213 -0.141,-0.1415 -0.22,-0.3332 -0.2195,-0.5329 v -0.4008 c 5e-4,-0.4149 0.3367,-0.7512 0.7517,-0.7517 z m 3.6191,0 h 0.3982 c 0.1997,-4e-4 0.3914,0.0786 0.5329,0.2196 0.1414,0.141 0.2211,0.3324 0.2213,0.5321 v 0.4008 c 4e-4,0.2001 -0.0789,0.3922 -0.2204,0.5337 -0.1416,0.1416 -0.3336,0.2209 -0.5338,0.2205 h -0.3982 c -0.2002,4e-4 -0.3923,-0.0789 -0.5338,-0.2205 -0.1415,-0.1415 -0.2208,-0.3336 -0.2204,-0.5337 v -0.4008 c 2e-4,-0.1997 0.0798,-0.3911 0.2213,-0.5321 0.1414,-0.141 0.3331,-0.22 0.5329,-0.2196 z M 6.75559,20.1568 h 0.39825 c 0.20015,-5e-4 0.39223,0.0789 0.53376,0.2204 0.14153,0.1415 0.22085,0.3336 0.22043,0.5337 v 0.3983 c 4.2e-4,0.2001 -0.0789,0.3922 -0.22043,0.5337 -0.14153,0.1416 -0.33361,0.2209 -0.53376,0.2205 H 6.75559 C 6.55544,22.0638 6.36336,21.9845 6.22183,21.8429 6.0803,21.7014 6.00098,21.5093 6.0014,21.3092 v -0.3983 c -4.2e-4,-0.2001 0.0789,-0.3922 0.22043,-0.5337 0.14153,-0.1415 0.33361,-0.2209 0.53376,-0.2204 z m 3.43491,0 h 11.619 c 0.3149,5e-4 0.57,0.3569 0.57,0.7965 v 0.3136 c 0,0.4395 -0.2551,0.7959 -0.57,0.7965 h -11.619 c -0.31489,-6e-4 -0.56996,-0.357 -0.56999,-0.7965 v -0.3136 c 3e-5,-0.4396 0.2551,-0.796 0.56999,-0.7965 z m 14.6557,0 h 0.3982 c 0.2002,-5e-4 0.3922,0.0789 0.5338,0.2204 0.1415,0.1415 0.2208,0.3336 0.2204,0.5337 v 0.3983 c 4e-4,0.2001 -0.0789,0.3922 -0.2204,0.5337 -0.1416,0.1416 -0.3336,0.2209 -0.5338,0.2205 h -0.3982 c -0.2002,4e-4 -0.3923,-0.0789 -0.5338,-0.2205 -0.1415,-0.1415 -0.2208,-0.3336 -0.2204,-0.5337 v -0.3983 c -4e-4,-0.2001 0.0789,-0.3922 0.2204,-0.5337 0.1415,-0.1415 0.3336,-0.2209 0.5338,-0.2204 z" />
      </g>
    </symbol>
  </defs>
  <g
     id="layer1"
     transform="translate(-0.61944569,-3.628772)">
    <use
       xlink:href="#symbol"
       id="use1" />
  </g>
</svg>
