<?xml version="1.0" encoding="UTF-8" standalone="no"?>
<!-- Created with Inkscape (http://www.inkscape.org/) -->

<svg
   width="32"
   height="32"
   viewBox="0 0 32 32"
   version="1.1"
   id="svg1"
   inkscape:version="1.4.2 (ebf0e940d0, 2025-05-08)"
   sodipodi:docname="keyboard.svg"
   xmlns:inkscape="http://www.inkscape.org/namespaces/inkscape"
   xmlns:sodipodi="http://sodipodi.sourceforge.net/DTD/sodipodi-0.dtd"
   xmlns:xlink="http://www.w3.org/1999/xlink"
   xmlns="http://www.w3.org/2000/svg"
   xmlns:svg="http://www.w3.org/2000/svg">
  <sodipodi:namedview
     id="namedview1"
     pagecolor="#505050"
     bordercolor="#eeeeee"
     borderopacity="1"
     inkscape:showpageshadow="0"
     inkscape:pageopacity="0"
     inkscape:pagecheckerboard="0"
     inkscape:deskcolor="#505050"
     inkscape:document-units="px"
     inkscape:zoom="28.616145"
     inkscape:cx="19.184974"
     inkscape:cy="16.389349"
     inkscape:window-width="1920"
     inkscape:window-height="1050"
     inkscape:window-x="0"
     inkscape:window-y="0"
     inkscape:window-maximized="0"
     inkscape:current-layer="layer1" />
  <defs
     id="defs1">
    <symbol
       id="symbol9">
      <title
         id="title9">#symbol</title>
      <path
         id="symbol"
         style="fill:#000000;fill-opacity:1;stroke:none;stroke-width:0;stroke-linejoin:round;stroke-opacity:1"
         d="M 5.86201 7.7313 C 4.84803 7.7313 3.87558 8.13411 3.15859 8.8511 C 2.4416 9.56809 2.0388 10.5405 2.0388 11.5545 L 2.0388 20.4455 C 2.0388 22.557 3.75051 24.2687 5.86201 24.2687 L 26.138 24.2687 C 27.152 24.2687 28.1244 23.8659 28.8414 23.1489 C 29.5584 22.4319 29.9612 21.4595 29.9612 20.4455 L 29.9612 11.5545 C 29.9612 10.5405 29.5584 9.56809 28.8414 8.8511 C 28.1244 8.13411 27.152 7.7313 26.138 7.7313 Z M 6.75559 9.23221 L 7.15384 9.23221 C 7.35356 9.23179 7.54526 9.31078 7.68671 9.45177 C 7.82817 9.59276 7.90779 9.78419 7.90803 9.98391 L 7.90803 10.3847 C 7.90779 10.5844 7.82817 10.7758 7.68671 10.9168 C 7.54526 11.0578 7.35356 11.1368 7.15384 11.1364 L 6.75559 11.1364 C 6.55587 11.1368 6.36417 11.0578 6.22271 10.9168 C 6.08125 10.7758 6.00164 10.5844 6.0014 10.3847 L 6.0014 9.98391 C 6.00164 9.78419 6.08125 9.59276 6.22271 9.45177 C 6.36417 9.31078 6.55587 9.23179 6.75559 9.23221 Z M 10.3722 9.23221 L 10.773 9.23221 C 11.1879 9.23271 11.5241 9.56897 11.5246 9.98391 L 11.5246 10.3847 C 11.5241 10.7996 11.1879 11.1359 10.7729 11.1364 L 10.3722 11.1364 C 9.95726 11.1359 9.62101 10.7996 9.62051 10.3847 L 9.62051 9.98391 C 9.62101 9.56897 9.95726 9.23271 10.3722 9.23221 Z M 13.9913 9.23221 L 14.3921 9.23221 C 14.807 9.23271 15.1433 9.56897 15.1438 9.98391 L 15.1438 10.3847 C 15.1433 10.7996 14.807 11.1359 14.3921 11.1364 L 13.9913 11.1364 C 13.7916 11.1368 13.5999 11.0578 13.4584 10.9168 C 13.317 10.7758 13.2374 10.5844 13.2371 10.3847 L 13.2371 9.98391 C 13.2374 9.78419 13.317 9.59276 13.4584 9.45177 C 13.5999 9.31078 13.7916 9.23179 13.9913 9.23221 Z M 17.6079 9.23221 L 18.0087 9.23221 C 18.2084 9.23179 18.4001 9.31078 18.5416 9.45177 C 18.683 9.59276 18.7626 9.78419 18.7629 9.98391 L 18.7629 10.3847 C 18.7626 10.5844 18.683 10.7758 18.5416 10.9168 C 18.4001 11.0578 18.2084 11.1368 18.0087 11.1364 L 17.6079 11.1364 C 17.193 11.1359 16.8567 10.7996 16.8562 10.3847 L 16.8562 9.98391 C 16.8567 9.56897 17.193 9.23271 17.6079 9.23221 Z M 21.2271 9.23221 L 21.6278 9.23221 C 22.0427 9.23271 22.379 9.56897 22.3795 9.98391 L 22.3795 10.3847 C 22.379 10.7996 22.0427 11.1359 21.6278 11.1364 L 21.2271 11.1364 C 20.8121 11.1359 20.4759 10.7996 20.4754 10.3847 L 20.4754 9.98391 C 20.4759 9.56897 20.8121 9.23271 21.2271 9.23221 Z M 24.8462 9.23221 L 25.2444 9.23221 C 25.4441 9.23179 25.6358 9.31078 25.7773 9.45177 C 25.9187 9.59276 25.9984 9.78419 25.9986 9.98391 L 25.9986 10.3847 C 25.9984 10.5844 25.9187 10.7758 25.7773 10.9168 C 25.6358 11.0578 25.4441 11.1368 25.2444 11.1364 L 24.8462 11.1364 C 24.6464 11.1368 24.4547 11.0578 24.3133 10.9168 C 24.1718 10.7758 24.0922 10.5844 24.092 10.3847 L 24.092 9.98391 C 24.0922 9.78419 24.1718 9.59276 24.3133 9.45177 C 24.4547 9.31078 24.6464 9.23179 24.8462 9.23221 Z M 6.75559 12.8737 L 7.15384 12.8737 C 7.35356 12.8733 7.54526 12.9523 7.68671 13.0933 C 7.82817 13.2343 7.90779 13.4257 7.90803 13.6254 L 7.90803 14.0262 C 7.90779 14.2259 7.82817 14.4173 7.68671 14.5583 C 7.54526 14.6993 7.35356 14.7783 7.15384 14.7779 L 6.75559 14.7779 C 6.55587 14.7783 6.36417 14.6993 6.22271 14.5583 C 6.08125 14.4173 6.00164 14.2259 6.0014 14.0262 L 6.0014 13.6254 C 6.00164 13.4257 6.08125 13.2343 6.22271 13.0933 C 6.36417 12.9523 6.55587 12.8733 6.75559 12.8737 Z M 10.3722 12.8737 L 10.773 12.8737 C 11.1879 12.8742 11.5241 13.2105 11.5246 13.6254 L 11.5246 14.0262 C 11.5241 14.4411 11.1879 14.7774 10.7729 14.7779 L 10.3722 14.7779 C 9.95726 14.7774 9.62101 14.4411 9.62051 14.0262 L 9.62051 13.6254 C 9.62101 13.2105 9.95726 12.8742 10.3722 12.8737 Z M 13.9913 12.8737 L 14.3921 12.8737 C 14.807 12.8742 15.1433 13.2105 15.1438 13.6254 L 15.1438 14.0262 C 15.1433 14.4411 14.807 14.7774 14.3921 14.7779 L 13.9913 14.7779 C 13.7916 14.7783 13.5999 14.6993 13.4584 14.5583 C 13.317 14.4173 13.2374 14.2259 13.2371 14.0262 L 13.2371 13.6254 C 13.2374 13.4257 13.317 13.2343 13.4584 13.0933 C 13.5999 12.9523 13.7916 12.8733 13.9913 12.8737 Z M 17.6079 12.8737 L 18.0087 12.8737 C 18.2084 12.8733 18.4001 12.9523 18.5416 13.0933 C 18.683 13.2343 18.7626 13.4257 18.7629 13.6254 L 18.7629 14.0262 C 18.7626 14.2259 18.683 14.4173 18.5416 14.5583 C 18.4001 14.6993 18.2084 14.7783 18.0087 14.7779 L 17.6079 14.7779 C 17.193 14.7774 16.8567 14.4411 16.8562 14.0262 L 16.8562 13.6254 C 16.8567 13.2105 17.193 12.8742 17.6079 12.8737 Z M 21.2271 12.8737 L 21.6278 12.8737 C 22.0427 12.8742 22.379 13.2105 22.3795 13.6254 L 22.3795 14.0262 C 22.379 14.4411 22.0427 14.7774 21.6278 14.7779 L 21.2271 14.7779 C 20.8121 14.7774 20.4759 14.4411 20.4754 14.0262 L 20.4754 13.6254 C 20.4759 13.2105 20.8121 12.8742 21.2271 12.8737 Z M 24.8462 12.8737 L 25.2444 12.8737 C 25.4441 12.8733 25.6358 12.9523 25.7773 13.0933 C 25.9187 13.2343 25.9984 13.4257 25.9986 13.6254 L 25.9986 14.0262 C 25.9984 14.2259 25.9187 14.4173 25.7773 14.5583 C 25.6358 14.6993 25.4441 14.7783 25.2444 14.7779 L 24.8462 14.7779 C 24.6464 14.7783 24.4547 14.6993 24.3133 14.5583 C 24.1718 14.4173 24.0922 14.2259 24.092 14.0262 L 24.092 13.6254 C 24.0922 13.4257 24.1718 13.2343 24.3133 13.0933 C 24.4547 12.9523 24.6464 12.8733 24.8462 12.8737 Z M 6.75559 16.5152 L 7.15384 16.5152 C 7.35356 16.5148 7.54526 16.5938 7.68671 16.7348 C 7.82817 16.8758 7.90779 17.0672 7.90803 17.2669 L 7.90803 17.6677 C 7.90845 17.8678 7.82912 18.0599 7.6876 18.2014 C 7.54607 18.343 7.35399 18.4223 7.15384 18.4219 L 6.75559 18.4219 C 6.55544 18.4223 6.36336 18.343 6.22183 18.2014 C 6.0803 18.0599 6.00098 17.8678 6.0014 17.6677 L 6.0014 17.2669 C 6.00164 17.0672 6.08125 16.8758 6.22271 16.7348 C 6.36417 16.5938 6.55587 16.5148 6.75559 16.5152 Z M 10.3722 16.5152 L 10.773 16.5152 C 11.1879 16.5157 11.5241 16.852 11.5246 17.2669 L 11.5246 17.6677 C 11.5251 17.8674 11.4461 18.0591 11.3051 18.2006 C 11.1641 18.342 10.9727 18.4216 10.7729 18.4219 L 10.3722 18.4219 C 10.1725 18.4216 9.98105 18.342 9.84006 18.2006 C 9.69907 18.0591 9.62009 17.8674 9.62051 17.6677 L 9.62051 17.2669 C 9.62101 16.852 9.95726 16.5157 10.3722 16.5152 Z M 13.9913 16.5152 L 14.3921 16.5152 C 14.807 16.5157 15.1433 16.852 15.1438 17.2669 L 15.1438 17.6677 C 15.1442 17.8674 15.0652 18.0591 14.9242 18.2006 C 14.7832 18.342 14.5918 18.4216 14.3921 18.4219 L 13.9913 18.4219 C 13.7912 18.4223 13.5991 18.343 13.4576 18.2014 C 13.316 18.0599 13.2367 17.8678 13.2371 17.6677 L 13.2371 17.2669 C 13.2374 17.0672 13.317 16.8758 13.4584 16.7348 C 13.5999 16.5938 13.7916 16.5148 13.9913 16.5152 Z M 17.6079 16.5152 L 18.0087 16.5152 C 18.2084 16.5148 18.4001 16.5938 18.5416 16.7348 C 18.683 16.8758 18.7626 17.0672 18.7629 17.2669 L 18.7629 17.6677 C 18.7633 17.8678 18.684 18.0599 18.5424 18.2014 C 18.4009 18.343 18.2088 18.4223 18.0087 18.4219 L 17.6079 18.4219 C 17.4082 18.4216 17.2168 18.342 17.0758 18.2006 C 16.9348 18.0591 16.8558 17.8674 16.8562 17.6677 L 16.8562 17.2669 C 16.8567 16.852 17.193 16.5157 17.6079 16.5152 Z M 21.2271 16.5152 L 21.6278 16.5152 C 22.0427 16.5157 22.379 16.852 22.3795 17.2669 L 22.3795 17.6677 C 22.3799 17.8674 22.3009 18.0591 22.1599 18.2006 C 22.0189 18.342 21.8275 18.4216 21.6278 18.4219 L 21.2271 18.4219 C 21.0273 18.4216 20.8359 18.342 20.6949 18.2006 C 20.5539 18.0591 20.4749 17.8674 20.4754 17.6677 L 20.4754 17.2669 C 20.4759 16.852 20.8121 16.5157 21.2271 16.5152 Z M 24.8462 16.5152 L 25.2444 16.5152 C 25.4441 16.5148 25.6358 16.5938 25.7773 16.7348 C 25.9187 16.8758 25.9984 17.0672 25.9986 17.2669 L 25.9986 17.6677 C 25.999 17.8678 25.9197 18.0599 25.7782 18.2014 C 25.6366 18.343 25.4446 18.4223 25.2444 18.4219 L 24.8462 18.4219 C 24.646 18.4223 24.4539 18.343 24.3124 18.2014 C 24.1709 18.0599 24.0916 17.8678 24.092 17.6677 L 24.092 17.2669 C 24.0922 17.0672 24.1718 16.8758 24.3133 16.7348 C 24.4547 16.5938 24.6464 16.5148 24.8462 16.5152 Z M 6.75559 20.1568 L 7.15384 20.1568 C 7.35399 20.1563 7.54607 20.2357 7.6876 20.3772 C 7.82913 20.5187 7.90845 20.7108 7.90803 20.9109 L 7.90803 21.3092 C 7.90845 21.5093 7.82913 21.7014 7.6876 21.8429 C 7.54607 21.9845 7.35399 22.0638 7.15384 22.0634 L 6.75559 22.0634 C 6.55544 22.0638 6.36336 21.9845 6.22183 21.8429 C 6.0803 21.7014 6.00098 21.5093 6.0014 21.3092 L 6.0014 20.9109 C 6.00098 20.7108 6.0803 20.5187 6.22183 20.3772 C 6.36336 20.2357 6.55544 20.1563 6.75559 20.1568 Z M 10.1905 20.1568 L 21.8095 20.1568 C 22.1244 20.1573 22.3795 20.5137 22.3795 20.9533 L 22.3795 21.2669 C 22.3795 21.7064 22.1244 22.0628 21.8095 22.0634 L 10.1905 22.0634 C 9.87561 22.0628 9.62054 21.7064 9.62051 21.2669 L 9.62051 20.9533 C 9.62054 20.5137 9.87561 20.1573 10.1905 20.1568 Z M 24.8462 20.1568 L 25.2444 20.1568 C 25.4446 20.1563 25.6366 20.2357 25.7782 20.3772 C 25.9197 20.5187 25.999 20.7108 25.9986 20.9109 L 25.9986 21.3092 C 25.999 21.5093 25.9197 21.7014 25.7782 21.8429 C 25.6366 21.9845 25.4446 22.0638 25.2444 22.0634 L 24.8462 22.0634 C 24.646 22.0638 24.4539 21.9845 24.3124 21.8429 C 24.1709 21.7014 24.0916 21.5093 24.092 21.3092 L 24.092 20.9109 C 24.0916 20.7108 24.1709 20.5187 24.3124 20.3772 C 24.4539 20.2357 24.646 20.1563 24.8462 20.1568 Z"
         inkscape:label="symbol" />
    </symbol>
  </defs>
  <g
     inkscape:label="Layer 1"
     inkscape:groupmode="layer"
     id="layer1">
    <use
       xlink:href="#symbol9"
       id="use9-0" />
  </g>
  <text
     xml:space="preserve"
     style="font-weight:200;font-size:12px;font-family:'DejaVu Sans';-inkscape-font-specification:'DejaVu Sans Ultra-Light';text-align:start;writing-mode:lr-tb;direction:ltr;text-anchor:start;fill:#ffffff;fill-opacity:1;stroke:none;stroke-width:0;stroke-linejoin:round;stroke-opacity:1"
     x="16"
     y="16"
     id="text9"><tspan
       sodipodi:role="line"
       id="tspan9"></tspan></text>
</svg>
