<?xml version="1.0" encoding="UTF-8" standalone="no"?>
<!-- Created with Inkscape (http://www.inkscape.org/) -->

<svg
   fill="#000000"
   width="720.21271"
   height="719.36646"
   viewBox="0 0 12.603722 12.588913"
   role="img"
   focusable="false"
   aria-hidden="true"
   version="1.1"
   id="svg1"
   xmlns:xlink="http://www.w3.org/1999/xlink"
   xmlns="http://www.w3.org/2000/svg"
   xmlns:svg="http://www.w3.org/2000/svg">
  <defs
     id="defs1">
    <symbol
       id="symbol">
      <path
         id="rect1"
         style="fill-opacity:1;fill-rule:nonzero;stroke-width:0;stroke-linecap:round;stroke-linejoin:round"
         d="m 5.66135,-3.89802 v 2.58528 C 5.70046,-0.579734 6.35996,-0.195166 6.80006,0.301771 7.4782,0.979907 8.15633,1.65804 8.83447,2.33618 9.15596,2.37057 8.98131,1.90872 9.02583,1.68963 V -3.9017 C 8.94076,-4.37748 8.42559,-4.20521 8.08873,-4.23815 H 6.00148 l -0.24051,0.09962 z m 5.16405,-0.00367 v 2.69157 c 0.087,0.480084 0.5996,0.302048 0.9371,0.336453 h 2.091 C 14.3292,-0.958735 14.157,-1.47391 14.1899,-1.81077 V -3.90169 C 14.1048,-4.37747 13.5897,-4.20521 13.2528,-4.23814 H 11.1619 L 10.924,-4.1396 Z M 5.66135,1.96627 v 2.0659 C 5.75406,4.42154 6.19754,4.25363 6.48687,4.2904 H 7.87853 C 8.22084,4.07361 7.72909,3.83079 7.58436,3.63104 7.00423,3.0509 6.42409,2.47077 5.84396,1.89063 L 5.72739,1.86744 Z M 10.8254,1.26238 v 2.69158 c 0.0851,0.47577 0.6003,0.30351 0.9371,0.33644 h 2.091 c 0.48,-0.08698 0.302,-0.59958 0.3364,-0.9371 V 1.26238 C 14.1029,0.782298 13.5903,0.960334 13.2528,0.925929 H 11.1619 L 10.924,1.02447 Z"
         transform="matrix(0.75657563,0.75657563,-0.75657563,0.75657563,-0.4827879,-0.52958336)" />
    </symbol>
  </defs>
  <g
     id="layer1"
     transform="translate(-0.68969866,-0.6979152)">
    <use
       xlink:href="#symbol"
       id="use1" />
  </g>
</svg>
