<?xml version="1.0" encoding="UTF-8" standalone="no"?>
<!-- Created with Inkscape (http://www.inkscape.org/) -->

<svg
   width="13.40915"
   height="8.2887735"
   viewBox="0 0 13.40915 8.2887735"
   version="1.1"
   id="svg1"
   xmlns:xlink="http://www.w3.org/1999/xlink"
   xmlns="http://www.w3.org/2000/svg"
   xmlns:svg="http://www.w3.org/2000/svg">
  <defs
     id="defs1">
    <symbol
       id="symbol">
      <title
         id="title1">#symbol</title>
      <path
         id="rect1"
         style="fill-opacity:1;stroke-width:0;stroke-linejoin:round;stroke-dasharray:none;stroke-opacity:1"
         d="M 4.06155,3.85809 C 2.6623,3.82518 1.38124,5.01187 1.30596,6.40916 c -0.01324,1.06012 -0.01347,2.12157 0,3.18168 0.07528,1.39726 1.35634,2.58396 2.75559,2.55106 2.69642,-0.0053 5.39338,0.0107 8.08945,-0.0081 1.3973,-0.0753 2.584,-1.3563 2.5511,-2.75558 C 14.6897,8.3423 14.7284,7.30423 14.6798,6.26983 14.5342,4.89361 13.2251,3.78277 11.8439,3.85809 Z M 6.45708,5.25084 C 6.79539,5.34744 7.0727,5.60433 7.38423,5.7708 8.46207,6.44613 9.55536,7.09987 10.6235,7.78875 10.8817,8.10304 10.4839,8.32788 10.2436,8.45829 9.00729,9.21623 7.78337,9.9975 6.53931,10.7408 6.14091,10.8088 6.1792,10.3354 6.18822,10.073 V 5.54876 C 6.18457,5.40057 6.30388,5.25406 6.45708,5.25084 Z" />
    </symbol>
  </defs>
  <g
     id="layer1"
     transform="translate(-1.2959436,-3.8544729)">
    <use
       xlink:href="#symbol"
       id="use2" />
  </g>
</svg>
